<svg width="1149" height="1149" viewBox="0 0 1149 1149" fill="none" xmlns="http://www.w3.org/2000/svg">
<g clip-path="url(#clip0_44_35)">
<path d="M653.68 0C675.771 0 693.801 17.9244 692.555 39.9806C688.065 119.466 670.149 196.692 639.11 270.04C621.36 312.02 599.71 351.84 574.35 389.19C549.83 425.34 521.82 459.2 490.5 490.49C465.653 515.321 439.228 538.089 411.314 558.689C398.128 568.42 380.318 568.234 366.406 559.573C335.769 540.5 303.605 523.82 270.04 509.62C184.455 473.422 93.6097 455.052 0.0149963 455.05C0.00671238 455.05 0 455.043 0 455.035C0 455.027 0.00674254 455.02 0.0150265 455.02C118.239 455.016 229.574 410.237 314.64 328.7C319.57 324.26 324.28 319.57 328.7 314.64C400.995 239.207 444.392 143.151 453.311 39.9553C455.214 17.9459 472.939 0 495.03 0H653.68Z" fill="#012B6A"/>
<path d="M314.64 328.69C317.03 326.4 319.4 324.09 321.75 321.74C324.1 319.39 326.41 317.01 328.7 314.63C324.29 319.56 319.58 324.26 314.64 328.69Z" fill="#012B6A"/>
<path d="M377.09 188.53C377.09 237.01 358.78 281.23 328.7 314.63C324.28 319.56 319.57 324.26 314.64 328.69C281.23 358.77 237.04 377.08 188.54 377.08C84.42 377.08 0 292.67 0 188.53C0 84.41 84.42 0 188.55 0C292.67 0 377.09 84.41 377.09 188.53Z" fill="#012B6A"/>
<path d="M1108.73 453.291C1130.74 455.194 1148.69 472.919 1148.69 495.01V653.66C1148.69 675.751 1130.77 693.781 1108.71 692.535C1029.22 688.046 951.999 670.13 878.65 639.09C836.67 621.34 796.89 599.71 759.53 574.37C723.36 549.83 689.52 521.8 658.19 490.49C633.364 465.672 610.613 439.244 590.026 411.347C580.294 398.159 580.477 380.345 589.14 366.431C608.218 335.787 624.908 303.604 639.1 270.04C675.32 184.45 693.68 93.58 693.68 0C693.68 118.166 738.432 229.455 819.901 314.519C819.928 314.547 819.946 314.602 819.98 314.621C819.991 314.627 820.004 314.635 820.013 314.644C824.425 319.564 829.106 324.265 834.046 328.677C834.055 328.686 834.067 328.701 834.076 328.71C834.102 328.738 834.136 328.755 834.164 328.782C909.57 401.014 1005.59 444.376 1108.73 453.291Z" fill="#A1D2FF"/>
<path d="M834.06 328.69C829.11 324.27 824.42 319.56 820 314.63C822.29 317.02 824.6 319.39 826.95 321.74C829.3 324.09 831.68 326.4 834.06 328.69Z" fill="#A1D2FF"/>
<path d="M1148.69 188.53C1148.69 292.67 1064.28 377.08 960.14 377.08C911.71 377.08 867.52 358.81 834.12 328.74C834.1 328.74 834.07 328.72 834.06 328.69C829.11 324.27 824.42 319.56 820 314.63C819.97 314.61 819.94 314.58 819.95 314.57C789.89 281.18 771.61 236.99 771.61 188.54C771.61 84.41 856.02 0 960.14 0C1064.28 0 1148.69 84.41 1148.69 188.53Z" fill="#A1D2FF"/>
<path d="M1148.67 693.66C1148.68 693.66 1148.69 693.667 1148.69 693.675C1148.69 693.683 1148.68 693.69 1148.67 693.69C1030.51 693.694 919.218 738.451 834.156 819.926C834.133 819.948 834.102 819.957 834.079 819.98C834.064 819.995 834.052 820.018 834.036 820.032C829.099 824.461 824.422 829.139 820.013 834.056C820.004 834.065 819.99 834.077 819.98 834.086C819.952 834.112 819.935 834.146 819.908 834.174C747.675 909.572 704.313 1005.6 695.398 1108.75C693.496 1130.76 675.771 1148.71 653.68 1148.71H495.03C472.939 1148.71 454.909 1130.79 456.155 1108.73C460.646 1029.23 478.565 952.02 509.58 878.67C527.34 836.67 549 796.87 574.35 759.52C598.87 723.35 626.88 689.5 658.2 658.2C683.049 633.367 709.477 610.603 737.395 590.014C750.576 580.292 768.377 580.479 782.282 589.134C812.923 608.205 845.091 624.884 878.66 639.07C964.235 675.308 1055.1 693.658 1148.67 693.66Z" fill="#47A7FF"/>
<path d="M834.06 820.02C831.67 822.31 829.3 824.62 826.95 826.97C824.6 829.32 822.29 831.69 820 834.08C824.42 829.14 829.11 824.45 834.06 820.02Z" fill="#47A7FF"/>
<path d="M1148.69 960.18C1148.69 1064.3 1064.28 1148.73 960.14 1148.73C856.02 1148.73 771.61 1064.31 771.61 960.18C771.61 911.75 789.89 867.54 819.95 834.15C819.95 834.13 819.97 834.1 820 834.09C824.42 829.16 829.11 824.46 834.06 820.03C834.08 820 834.11 819.98 834.12 819.98C867.51 789.92 911.7 771.64 960.14 771.64C1064.28 771.63 1148.69 856.05 1148.69 960.18Z" fill="#47A7FF"/>
<path d="M558.675 737.387C568.402 750.573 568.216 768.381 559.554 782.29C540.474 812.932 523.781 845.108 509.58 878.69C473.38 964.28 455.03 1055.13 455.03 1148.73C455.03 1030.62 410.33 919.37 328.95 834.34C328.87 834.26 328.81 834.18 328.71 834.08C324.29 829.15 319.58 824.45 314.65 820.02C314.57 819.94 314.49 819.86 314.39 819.78C239.019 747.653 143.046 704.323 39.9551 695.409C17.9459 693.506 0 675.781 0 653.69V495.05C0 472.959 17.9244 454.929 39.9806 456.175C119.477 460.669 196.691 478.597 270.05 509.62C312.03 527.38 351.81 549.02 389.17 574.37C425.34 598.89 459.18 626.9 490.51 658.23C515.338 683.058 538.091 709.484 558.675 737.387Z" fill="#006AE6"/>
<path d="M328.71 834.08C326.42 831.69 324.11 829.32 321.76 826.97C319.41 824.62 317.04 822.31 314.65 820.02C319.58 824.45 324.29 829.14 328.71 834.08Z" fill="#006AE6"/>
<path d="M377.09 960.18C377.09 1064.32 292.67 1148.73 188.54 1148.73C84.42 1148.72 0 1064.32 0 960.18C0 856.06 84.42 771.63 188.55 771.63C236.92 771.63 281.01 789.84 314.39 819.78C314.49 819.86 314.57 819.94 314.65 820.02C319.58 824.46 324.29 829.15 328.71 834.08C328.81 834.18 328.87 834.26 328.95 834.34C358.88 867.71 377.09 911.82 377.09 960.18Z" fill="#006AE6"/>
</g>
<defs>
<clipPath id="clip0_44_35">
<rect width="1148.69" height="1148.72" fill="white"/>
</clipPath>
</defs>
</svg>
